<svg width="20" height="20" viewBox="0 0 20 20" fill="none" xmlns="http://www.w3.org/2000/svg">
<path fill-rule="evenodd" clip-rule="evenodd" d="M5.00002 4.16667C4.55799 4.16667 4.13407 4.34226 3.82151 4.65482C3.50895 4.96738 3.33335 5.39131 3.33335 5.83333V14.1667C3.33335 14.6087 3.50895 15.0326 3.82151 15.3452C4.13407 15.6577 4.55799 15.8333 5.00002 15.8333H15C15.442 15.8333 15.866 15.6577 16.1785 15.3452C16.4911 15.0326 16.6667 14.6087 16.6667 14.1667V5.83333C16.6667 5.39131 16.4911 4.96738 16.1785 4.65482C15.866 4.34226 15.442 4.16667 15 4.16667H5.00002ZM2.643 3.47631C3.26812 2.85119 4.11597 2.5 5.00002 2.5H15C15.8841 2.5 16.7319 2.85119 17.357 3.47631C17.9822 4.10143 18.3334 4.94928 18.3334 5.83333V14.1667C18.3334 15.0507 17.9822 15.8986 17.357 16.5237C16.7319 17.1488 15.8841 17.5 15 17.5H5.00002C4.11597 17.5 3.26812 17.1488 2.643 16.5237C2.01788 15.8986 1.66669 15.0507 1.66669 14.1667V5.83333C1.66669 4.94928 2.01788 4.10143 2.643 3.47631ZM5.73225 6.56557C6.20109 6.09673 6.83698 5.83333 7.50002 5.83333C8.16306 5.83333 8.79895 6.09673 9.26779 6.56557C9.73663 7.03441 10 7.67029 10 8.33333C10 8.99638 9.73663 9.63226 9.26779 10.1011C8.79895 10.5699 8.16306 10.8333 7.50002 10.8333C6.83698 10.8333 6.20109 10.5699 5.73225 10.1011C5.26341 9.63226 5.00002 8.99637 5.00002 8.33333C5.00002 7.67029 5.26341 7.03441 5.73225 6.56557ZM7.50002 7.5C7.27901 7.5 7.06704 7.5878 6.91076 7.74408C6.75448 7.90036 6.66669 8.11232 6.66669 8.33333C6.66669 8.55435 6.75448 8.76631 6.91076 8.92259C7.06704 9.07887 7.27901 9.16667 7.50002 9.16667C7.72103 9.16667 7.93299 9.07887 8.08927 8.92259C8.24556 8.76631 8.33335 8.55435 8.33335 8.33333C8.33335 8.11232 8.24556 7.90036 8.08927 7.74408C7.93299 7.5878 7.72103 7.5 7.50002 7.5ZM12.5 5.83333C12.0398 5.83333 11.6667 6.20643 11.6667 6.66667C11.6667 7.1269 12.0398 7.5 12.5 7.5H14.1667C14.6269 7.5 15 7.1269 15 6.66667C15 6.20643 14.6269 5.83333 14.1667 5.83333H12.5ZM11.6667 10C11.6667 9.53976 12.0398 9.16667 12.5 9.16667H14.1667C14.6269 9.16667 15 9.53976 15 10C15 10.4602 14.6269 10.8333 14.1667 10.8333H12.5C12.0398 10.8333 11.6667 10.4602 11.6667 10ZM5.83335 12.5C5.37312 12.5 5.00002 12.8731 5.00002 13.3333C5.00002 13.7936 5.37312 14.1667 5.83335 14.1667H14.1667C14.6269 14.1667 15 13.7936 15 13.3333C15 12.8731 14.6269 12.5 14.1667 12.5H5.83335Z" fill="#0E121B"/>
</svg>
