<svg width="20" height="20" viewBox="0 0 20 20" fill="none" xmlns="http://www.w3.org/2000/svg">
<path d="M10.0083 1.67584C10.6565 1.67588 11.2824 1.91198 11.7692 2.34001L11.8975 2.46084L12.4792 3.04251C12.6388 3.2011 12.8473 3.30122 13.0708 3.32668L13.1833 3.33334H14.0167C14.6977 3.3333 15.3529 3.59382 15.848 4.06146C16.343 4.5291 16.6404 5.16843 16.6792 5.84834L16.6833 6.00001V6.83334C16.6833 7.05834 16.76 7.27751 16.8983 7.45251L16.9733 7.53584L17.5542 8.11751C18.0356 8.59622 18.3163 9.24053 18.3391 9.91907C18.3618 10.5976 18.1249 11.2593 17.6767 11.7692L17.5558 11.8975L16.9742 12.4792C16.8156 12.6388 16.7155 12.8473 16.69 13.0708L16.6833 13.1833V14.0167C16.6834 14.6977 16.4229 15.3529 15.9552 15.848C15.4876 16.343 14.8482 16.6404 14.1683 16.6792L14.0167 16.6833H13.1833C12.9586 16.6834 12.7405 16.7592 12.5642 16.8983L12.4808 16.9733L11.8992 17.5542C11.4205 18.0356 10.7761 18.3163 10.0976 18.3391C9.41907 18.3619 8.75739 18.1249 8.2475 17.6767L8.11916 17.5558L7.5375 16.9742C7.37786 16.8156 7.16941 16.7155 6.94583 16.69L6.83333 16.6833H6C5.31898 16.6834 4.66376 16.4229 4.16869 15.9552C3.67362 15.4876 3.37623 14.8483 3.3375 14.1683L3.33333 14.0167V13.1833C3.33326 12.9587 3.25752 12.7406 3.11833 12.5642L3.04333 12.4808L2.4625 11.8992C1.98107 11.4205 1.70035 10.7762 1.67759 10.0976C1.65482 9.41908 1.89173 8.7574 2.34 8.24751L2.46083 8.11918L3.0425 7.53751C3.20109 7.37788 3.30121 7.16942 3.32666 6.94584L3.33333 6.83334V6.00001L3.3375 5.84834C3.37471 5.19455 3.65119 4.5773 4.11424 4.11425C4.57729 3.6512 5.19454 3.37472 5.84833 3.33751L6 3.33334H6.83333C7.05801 3.33327 7.27612 3.25753 7.4525 3.11834L7.53583 3.04334L8.1175 2.46251C8.36528 2.21325 8.65989 2.01543 8.98439 1.88043C9.30888 1.74542 9.65687 1.67589 10.0083 1.67584ZM13.0892 7.74418C12.9329 7.58795 12.721 7.50019 12.5 7.50019C12.279 7.50019 12.0671 7.58795 11.9108 7.74418L9.16666 10.4875L8.08916 9.41084L8.01083 9.34168C7.84334 9.21217 7.63283 9.15127 7.42206 9.17134C7.21129 9.19142 7.01607 9.29097 6.87604 9.44978C6.73601 9.60858 6.66168 9.81473 6.66814 10.0264C6.6746 10.238 6.76137 10.4392 6.91083 10.5892L8.5775 12.2558L8.65583 12.325C8.81617 12.4494 9.01638 12.511 9.2189 12.4983C9.42142 12.4855 9.61234 12.3993 9.75583 12.2558L13.0892 8.92251L13.1583 8.84418C13.2827 8.68384 13.3443 8.48363 13.3316 8.28111C13.3188 8.07859 13.2326 7.88767 13.0892 7.74418Z" fill="#335CFF"/>
</svg>
