<svg width="21" height="20" viewBox="0 0 21 20" fill="none" xmlns="http://www.w3.org/2000/svg">
<path d="M7.46672 11.6667C7.00648 11.6667 6.63338 12.0398 6.63338 12.5V14.1667C6.63338 14.6269 7.00648 15 7.46672 15H9.13338C9.59362 15 9.96672 14.6269 9.96672 14.1667V12.5C9.96672 12.0398 9.59362 11.6667 9.13338 11.6667H7.46672Z" fill="#99A0AD"/>
<path fill-rule="evenodd" clip-rule="evenodd" d="M14.1334 1.66669C14.5936 1.66669 14.9667 2.03978 14.9667 2.50002V3.33335H15.8C16.4631 3.33335 17.099 3.59675 17.5678 4.06559C18.0367 4.53443 18.3 5.17031 18.3 5.83335V15.8334C18.3 16.4964 18.0367 17.1323 17.5678 17.6011C17.099 18.07 16.4631 18.3334 15.8 18.3334H5.80005C5.13701 18.3334 4.50112 18.07 4.03228 17.6011C3.56344 17.1323 3.30005 16.4964 3.30005 15.8334V5.83335C3.30005 5.17031 3.56344 4.53443 4.03228 4.06559C4.50112 3.59675 5.13701 3.33335 5.80005 3.33335H6.63338V2.50002C6.63338 2.03978 7.00648 1.66669 7.46672 1.66669C7.92695 1.66669 8.30005 2.03978 8.30005 2.50002V3.33335H13.3V2.50002C13.3 2.03978 13.6731 1.66669 14.1334 1.66669ZM16.6334 5.83335V8.33335H4.96672V5.83335C4.96672 5.61234 5.05451 5.40038 5.21079 5.2441C5.36707 5.08782 5.57903 5.00002 5.80005 5.00002H6.63338V5.83335C6.63338 6.29359 7.00648 6.66669 7.46672 6.66669C7.92695 6.66669 8.30005 6.29359 8.30005 5.83335V5.00002H13.3V5.83335C13.3 6.29359 13.6731 6.66669 14.1334 6.66669C14.5936 6.66669 14.9667 6.29359 14.9667 5.83335V5.00002H15.8C16.0211 5.00002 16.233 5.08782 16.3893 5.2441C16.5456 5.40038 16.6334 5.61234 16.6334 5.83335ZM16.6334 10H4.96672V15.8334C4.96672 16.0544 5.05451 16.2663 5.21079 16.4226C5.36707 16.5789 5.57904 16.6667 5.80005 16.6667H15.8C16.0211 16.6667 16.233 16.5789 16.3893 16.4226C16.5456 16.2663 16.6334 16.0544 16.6334 15.8334V10Z" fill="#99A0AD"/>
</svg>
