<svg width="16" height="16" viewBox="0 0 16 16" fill="none" xmlns="http://www.w3.org/2000/svg">
<path d="M8.66671 4.66665C8.66671 4.29846 8.36823 3.99998 8.00004 3.99998C7.63185 3.99998 7.33337 4.29846 7.33337 4.66665V7.99998C7.33337 8.17679 7.40361 8.34636 7.52864 8.47138L9.52864 10.4714C9.78899 10.7317 10.2111 10.7317 10.4714 10.4714C10.7318 10.211 10.7318 9.78892 10.4714 9.52857L8.66671 7.72384V4.66665Z" fill="#717784"/>
<path fill-rule="evenodd" clip-rule="evenodd" d="M8.00004 1.33331C6.23193 1.33331 4.53624 2.03569 3.286 3.28593C2.03575 4.53618 1.33337 6.23187 1.33337 7.99998C1.33337 8.87546 1.50581 9.74237 1.84084 10.5512C2.17588 11.36 2.66694 12.095 3.286 12.714C3.90505 13.3331 4.63998 13.8241 5.44882 14.1592C6.25766 14.4942 7.12456 14.6666 8.00004 14.6666C8.87552 14.6666 9.74243 14.4942 10.5513 14.1592C11.3601 13.8241 12.095 13.3331 12.7141 12.714C13.3331 12.095 13.8242 11.36 14.1592 10.5512C14.4943 9.74236 14.6667 8.87546 14.6667 7.99998C14.6667 6.23187 13.9643 4.53618 12.7141 3.28593C11.4638 2.03569 9.76815 1.33331 8.00004 1.33331ZM4.2288 4.22874C5.229 3.22855 6.58555 2.66665 8.00004 2.66665C9.41453 2.66665 10.7711 3.22855 11.7713 4.22874C12.7715 5.22894 13.3334 6.58549 13.3334 7.99998C13.3334 8.70036 13.1954 9.39389 12.9274 10.041C12.6594 10.688 12.2665 11.276 11.7713 11.7712C11.276 12.2665 10.6881 12.6593 10.041 12.9273C9.39395 13.1954 8.70042 13.3333 8.00004 13.3333C7.29966 13.3333 6.60613 13.1954 5.95906 12.9273C5.31199 12.6593 4.72405 12.2665 4.2288 11.7712C3.73356 11.276 3.34071 10.688 3.07268 10.041C2.80466 9.39389 2.66671 8.70036 2.66671 7.99998C2.66671 6.58549 3.22861 5.22894 4.2288 4.22874Z" fill="#717784"/>
</svg>
