<svg width="20" height="20" viewBox="0 0 20 20" fill="none" xmlns="http://www.w3.org/2000/svg">
<path fill-rule="evenodd" clip-rule="evenodd" d="M5.81556 5.45141C8.44737 3.58475 12.2455 3.74388 14.6633 5.80576L5.81556 5.45141ZM14.6634 5.80585C17.0419 7.83516 17.3411 11.0598 15.4185 13.3926C13.4587 15.7708 9.75836 16.5294 6.78058 15.0838C6.61373 15.0028 6.42463 14.9798 6.24322 15.0184L3.75111 15.5486L4.37388 13.6803C4.4558 13.4345 4.41876 13.1646 4.27364 12.95C2.60808 10.4868 3.22072 7.29276 5.81543 5.4515M4.85119 4.09209C8.09599 1.79054 12.7377 1.97307 15.7449 4.53774L15.745 4.53783C18.7914 7.13687 19.2255 11.3938 16.7047 14.4526C14.2816 17.393 9.8928 18.2971 6.31791 16.7065L2.6734 17.4819C2.38106 17.5441 2.0778 17.445 1.87863 17.2221C1.67946 16.9993 1.61489 16.6868 1.70941 16.4033L2.66748 13.529C0.751673 10.32 1.68683 6.33747 4.85106 4.09218L4.85119 4.09209Z" fill="#717784"/>
</svg>
