<svg width="16" height="16" viewBox="0 0 16 16" fill="none" xmlns="http://www.w3.org/2000/svg">
<path fill-rule="evenodd" clip-rule="evenodd" d="M11 2.44775C10.6648 2.44775 10.3329 2.51377 10.0233 2.64204C9.71363 2.7703 9.43226 2.9583 9.19526 3.1953L8.53294 3.85763C8.53148 3.85905 8.53004 3.86049 8.5286 3.86193C8.52715 3.86337 8.52572 3.86482 8.52429 3.86627L2.19526 10.1953C2.07024 10.3203 2 10.4899 2 10.6667V13.3334C2 13.7016 2.29848 14 2.66667 14H5.33333C5.51014 14 5.67971 13.9298 5.80474 13.8048L12.8047 6.80478C13.0417 6.56778 13.2297 6.28641 13.358 5.97676C13.4863 5.6671 13.5523 5.33521 13.5523 5.00004C13.5523 4.66487 13.4863 4.33298 13.358 4.02332C13.2297 3.71366 13.0417 3.4323 12.8047 3.1953C12.5677 2.9583 12.2864 2.7703 11.9767 2.64204C11.6671 2.51377 11.3352 2.44775 11 2.44775ZM9.00002 5.27616L3.33333 10.9428V12.6667H5.05719L10.7239 7.00002L9.00002 5.27616ZM11.6667 6.05721L11.8619 5.86197C11.9751 5.74878 12.0649 5.6144 12.1262 5.46651C12.1874 5.31862 12.219 5.16012 12.219 5.00004C12.219 4.83996 12.1874 4.68145 12.1262 4.53357C12.0649 4.38568 11.9751 4.2513 11.8619 4.13811C11.7487 4.02492 11.6144 3.93513 11.4665 3.87387C11.3186 3.81262 11.1601 3.78109 11 3.78109C10.8399 3.78109 10.6814 3.81262 10.5335 3.87387C10.3856 3.93513 10.2513 4.02492 10.1381 4.13811L9.94283 4.33335L11.6667 6.05721Z" fill="#0E121B"/>
</svg>
