<svg width="41" height="40" viewBox="0 0 41 40" fill="none" xmlns="http://www.w3.org/2000/svg">
<g clip-path="url(#clip0_3023_448)">
<path d="M0.333313 12C0.333313 5.37258 5.7059 0 12.3333 0H28.3333C34.9607 0 40.3333 5.37258 40.3333 12V28C40.3333 34.6274 34.9607 40 28.3333 40H12.3333C5.7059 40 0.333313 34.6274 0.333313 28V12Z" fill="white"/>
<rect x="0.333313" width="40" height="40" fill="url(#paint0_linear_3023_448)"/>
<path d="M24.4999 12.7833C25.7568 13.509 26.8023 14.5504 27.5331 15.8044C28.2638 17.0584 28.6543 18.4815 28.6661 19.9328C28.6778 21.3841 28.3103 22.8133 27.5999 24.0789C26.8895 25.3445 25.8609 26.4027 24.6159 27.1486C23.3709 27.8945 21.9527 28.3023 20.5016 28.3317C19.0506 28.3611 17.617 28.011 16.3428 27.316C15.0687 26.6211 13.9981 25.6054 13.2371 24.3696C12.4761 23.1337 12.0511 21.7206 12.004 20.27L11.9999 20L12.004 19.73C12.0507 18.2908 12.4695 16.8883 13.2196 15.6592C13.9697 14.43 15.0254 13.4162 16.284 12.7166C17.5425 12.0169 18.9608 11.6553 20.4007 11.667C21.8406 11.6787 23.2529 12.0633 24.4999 12.7833ZM23.624 18.4867C23.5595 18.2929 23.4261 18.1297 23.2491 18.0278C23.0722 17.926 22.864 17.8927 22.664 17.9342L22.5699 17.9592L20.3332 18.705L18.0965 17.9592L18.0024 17.9342C17.8027 17.8931 17.5948 17.9266 17.4181 18.0285C17.2415 18.1303 17.1083 18.2934 17.0438 18.4869C16.9793 18.6803 16.988 18.8907 17.0682 19.0782C17.1484 19.2656 17.2946 19.4172 17.479 19.5042L17.5699 19.5408L19.4999 20.1833V20.9967L17.9732 23.2883L17.9232 23.3717C17.8387 23.5376 17.8123 23.7271 17.8481 23.9099C17.8839 24.0927 17.9799 24.2582 18.1207 24.38L18.204 24.4433L18.2882 24.4933C18.4542 24.5778 18.6437 24.6043 18.8264 24.5685C19.0092 24.5327 19.1747 24.4367 19.2965 24.2958L19.3599 24.2125L20.3332 22.7525L21.3065 24.2125L21.3649 24.29C21.4971 24.4458 21.682 24.5477 21.8844 24.5761C22.0867 24.6045 22.2925 24.5576 22.4626 24.4442C22.6326 24.3309 22.7551 24.159 22.8067 23.9612C22.8583 23.7635 22.8354 23.5536 22.7424 23.3717L22.6932 23.2883L21.1665 20.9967V20.1825L23.0965 19.54L23.1874 19.5033C23.3721 19.4166 23.5186 19.2651 23.5991 19.0776C23.6796 18.89 23.6885 18.6795 23.624 18.4858V18.4867ZM20.3332 15C20.0017 15 19.6837 15.1317 19.4493 15.3661C19.2149 15.6005 19.0832 15.9185 19.0832 16.25C19.0832 16.5815 19.2149 16.8995 19.4493 17.1339C19.6837 17.3683 20.0017 17.5 20.3332 17.5C20.6647 17.5 20.9827 17.3683 21.2171 17.1339C21.4515 16.8995 21.5832 16.5815 21.5832 16.25C21.5832 15.9185 21.4515 15.6005 21.2171 15.3661C20.9827 15.1317 20.6647 15 20.3332 15Z" fill="#1FC16B"/>
</g>
<defs>
<linearGradient id="paint0_linear_3023_448" x1="20.3333" y1="0" x2="20.3333" y2="40" gradientUnits="userSpaceOnUse">
<stop stop-color="#3EE089" stop-opacity="0.24"/>
<stop offset="0.5" stop-color="#3EE089" stop-opacity="0.08"/>
</linearGradient>
<clipPath id="clip0_3023_448">
<path d="M0.333313 12C0.333313 5.37258 5.7059 0 12.3333 0H28.3333C34.9607 0 40.3333 5.37258 40.3333 12V28C40.3333 34.6274 34.9607 40 28.3333 40H12.3333C5.7059 40 0.333313 34.6274 0.333313 28V12Z" fill="white"/>
</clipPath>
</defs>
</svg>
