<svg width="25" height="24" viewBox="0 0 25 24" fill="none" xmlns="http://www.w3.org/2000/svg">
<g clip-path="url(#clip0_3023_251)">
<mask id="path-1-outside-1_3023_251" maskUnits="userSpaceOnUse" x="0.400024" y="0" width="24" height="24" fill="black">
<rect fill="white" x="0.400024" width="24" height="24"/>
<path d="M2.40002 12C2.40002 6.47715 6.87718 2 12.4 2V2C17.9229 2 22.4 6.47715 22.4 12V12C22.4 17.5228 17.9229 22 12.4 22V22C6.87718 22 2.40002 17.5228 2.40002 12V12Z"/>
</mask>
<g clip-path="url(#clip1_3023_251)">
<rect x="2.40002" y="2" width="20" height="20" fill="#99A0AD" fill-opacity="0.24"/>
<circle opacity="0.64" cx="12.4" cy="10" r="4" fill="white"/>
<ellipse opacity="0.64" cx="12.4" cy="21.5" rx="8" ry="6" fill="white"/>
</g>
</g>
<path d="M12.4 20C7.98175 20 4.40002 16.4183 4.40002 12H0.400024C0.400024 18.6274 5.77261 24 12.4 24V20ZM20.4 12C20.4 16.4183 16.8183 20 12.4 20V24C19.0274 24 24.4 18.6274 24.4 12H20.4ZM12.4 4C16.8183 4 20.4 7.58172 20.4 12H24.4C24.4 5.37258 19.0274 0 12.4 0V4ZM12.4 0C5.77261 0 0.400024 5.37258 0.400024 12H4.40002C4.40002 7.58172 7.98175 4 12.4 4V0Z" fill="white" mask="url(#path-1-outside-1_3023_251)"/>
<defs>
<clipPath id="clip0_3023_251">
<path d="M2.40002 12C2.40002 6.47715 6.87718 2 12.4 2V2C17.9229 2 22.4 6.47715 22.4 12V12C22.4 17.5228 17.9229 22 12.4 22V22C6.87718 22 2.40002 17.5228 2.40002 12V12Z" fill="white"/>
</clipPath>
<clipPath id="clip1_3023_251">
<path d="M2.40002 12C2.40002 6.47715 6.87718 2 12.4 2V2C17.9229 2 22.4 6.47715 22.4 12V12C22.4 17.5228 17.9229 22 12.4 22V22C6.87718 22 2.40002 17.5228 2.40002 12V12Z" fill="white"/>
</clipPath>
</defs>
</svg>
