<svg width="41" height="40" viewBox="0 0 41 40" fill="none" xmlns="http://www.w3.org/2000/svg">
<g clip-path="url(#clip0_3023_497)">
<path d="M0.333313 12C0.333313 5.37258 5.7059 0 12.3333 0H28.3333C34.9607 0 40.3333 5.37258 40.3333 12V28C40.3333 34.6274 34.9607 40 28.3333 40H12.3333C5.7059 40 0.333313 34.6274 0.333313 28V12Z" fill="white"/>
<rect x="0.333313" width="40" height="40" fill="url(#paint0_linear_3023_497)"/>
<path d="M16.1491 12.5616C16.8867 12.436 17.643 12.4774 18.3624 12.6829C19.0818 12.8885 19.7459 13.2528 20.3058 13.7491L20.3366 13.7766L20.3649 13.7516C20.8993 13.2827 21.5275 12.9331 22.2076 12.7262C22.8877 12.5193 23.6042 12.4598 24.3091 12.5516L24.5141 12.5816C25.4027 12.7351 26.2333 13.1259 26.9178 13.7129C27.6024 14.2998 28.1155 15.0609 28.4028 15.9157C28.6901 16.7704 28.7409 17.6869 28.5499 18.5682C28.3588 19.4495 27.9329 20.2626 27.3174 20.9216L27.1674 21.0758L27.1274 21.11L20.9191 27.2591C20.7758 27.4009 20.586 27.486 20.3848 27.4986C20.1837 27.5111 19.9847 27.4503 19.8249 27.3275L19.7466 27.2591L13.5024 21.0741C12.841 20.4305 12.3705 19.6164 12.1432 18.7219C11.916 17.8273 11.9407 16.8874 12.2147 16.0061C12.4887 15.1247 13.0013 14.3365 13.6957 13.7285C14.3902 13.1206 15.2393 12.7167 16.1491 12.5616Z" fill="#FB3747"/>
</g>
<defs>
<linearGradient id="paint0_linear_3023_497" x1="20.3333" y1="0" x2="20.3333" y2="40" gradientUnits="userSpaceOnUse">
<stop stop-color="#FF6673" stop-opacity="0.24"/>
<stop offset="0.5" stop-color="#FF6673" stop-opacity="0.08"/>
</linearGradient>
<clipPath id="clip0_3023_497">
<path d="M0.333313 12C0.333313 5.37258 5.7059 0 12.3333 0H28.3333C34.9607 0 40.3333 5.37258 40.3333 12V28C40.3333 34.6274 34.9607 40 28.3333 40H12.3333C5.7059 40 0.333313 34.6274 0.333313 28V12Z" fill="white"/>
</clipPath>
</defs>
</svg>
