<svg width="16" height="18" viewBox="0 0 16 18" fill="none" xmlns="http://www.w3.org/2000/svg">
<path fill-rule="evenodd" clip-rule="evenodd" d="M4.86669 14H1.53336C1.1549 14 0.823957 13.745 0.72753 13.379C0.631102 13.013 0.793405 12.628 1.12273 12.4415C1.46332 12.2487 1.75386 11.9785 1.97098 11.6529C2.17945 11.3402 2.31463 10.9846 2.36669 10.6128V8.16669C2.36669 8.15366 2.367 8.14063 2.36761 8.12761C2.42433 6.91911 2.80885 5.74883 3.47994 4.74219C4.06366 3.86661 4.84505 3.14355 5.75835 2.62979C5.86008 2.16718 6.0921 1.73908 6.43226 1.39892C6.9011 0.930079 7.53699 0.666687 8.20003 0.666687C8.86307 0.666687 9.49895 0.930079 9.96779 1.39892C10.308 1.73908 10.54 2.16718 10.6417 2.62979C11.555 3.14355 12.3364 3.86661 12.9201 4.74219C13.5912 5.74883 13.9757 6.91911 14.0324 8.12761C14.0331 8.14063 14.0334 8.15366 14.0334 8.16669V10.6128C14.0854 10.9846 14.2206 11.3402 14.4291 11.6529C14.6462 11.9785 14.9367 12.2487 15.2773 12.4415C15.6066 12.628 15.769 13.013 15.6725 13.379C15.5761 13.745 15.2452 14 14.8667 14H11.5334C11.5334 14.8841 11.1822 15.7319 10.557 16.357C9.93193 16.9822 9.08408 17.3334 8.20003 17.3334C7.31597 17.3334 6.46813 16.9822 5.843 16.357C5.21788 15.7319 4.86669 14.8841 4.86669 14ZM7.61077 2.57743C7.76705 2.42115 7.97901 2.33335 8.20003 2.33335C8.42104 2.33335 8.633 2.42115 8.78928 2.57743C8.94556 2.73371 9.03336 2.94567 9.03336 3.16669C9.03336 3.48893 9.21915 3.78229 9.51047 3.92004C10.3308 4.30792 11.03 4.91171 11.5334 5.66669C12.0332 6.41645 12.3211 7.28727 12.3667 8.18699V10.6667C12.3667 10.7002 12.3687 10.7336 12.3727 10.7668C12.4396 11.3193 12.6164 11.8518 12.8915 12.3334H3.50854C3.7837 11.8518 3.96045 11.3193 4.02732 10.7668C4.03134 10.7336 4.03336 10.7002 4.03336 10.6667V8.18698C4.07898 7.28727 4.36685 6.41645 4.86669 5.66669C5.37001 4.91171 6.06929 4.30792 6.88959 3.92004C7.18091 3.78229 7.36669 3.48893 7.36669 3.16669C7.36669 2.94567 7.45449 2.73371 7.61077 2.57743ZM9.86669 14C9.86669 14.442 9.6911 14.866 9.37854 15.1785C9.06598 15.4911 8.64206 15.6667 8.20003 15.6667C7.758 15.6667 7.33408 15.4911 7.02152 15.1785C6.70896 14.866 6.53336 14.442 6.53336 14H9.86669Z" fill="#99A0AD"/>
</svg>
