<svg width="41" height="40" viewBox="0 0 41 40" fill="none" xmlns="http://www.w3.org/2000/svg">
<g clip-path="url(#clip0_3023_588)">
<path d="M0.666687 12C0.666687 5.37258 6.03927 0 12.6667 0H28.6667C35.2941 0 40.6667 5.37258 40.6667 12V28C40.6667 34.6274 35.2941 40 28.6667 40H12.6667C6.03927 40 0.666687 34.6274 0.666687 28V12Z" fill="white"/>
<rect x="0.666687" width="40" height="40" fill="url(#paint0_linear_3023_588)"/>
<path d="M29 21.2317V25C29 25.6631 28.7366 26.2989 28.2678 26.7678C27.799 27.2366 27.1631 27.5 26.5 27.5H14.8334C14.1703 27.5 13.5344 27.2366 13.0656 26.7678C12.5968 26.2989 12.3334 25.6631 12.3334 25V21.2317L12.7942 21.4625C15.2366 22.6928 17.9334 23.3334 20.6682 23.3332C23.4029 23.3329 26.0995 22.6916 28.5417 21.4609L29 21.2317ZM22.3334 11.6667C22.9964 11.6667 23.6323 11.9301 24.1011 12.3989C24.57 12.8678 24.8334 13.5036 24.8334 14.1667V15H26.5C27.1631 15 27.799 15.2634 28.2678 15.7323C28.7366 16.2011 29 16.837 29 17.5V19.3684L27.7942 19.9717C25.6367 21.0592 23.2589 21.6385 20.843 21.6654C18.4271 21.6922 16.037 21.1659 13.8559 20.1267L13.3167 19.86L12.3334 19.3684V17.5C12.3334 16.837 12.5968 16.2011 13.0656 15.7323C13.5344 15.2634 14.1703 15 14.8334 15H16.5V14.1667C16.5 13.5036 16.7634 12.8678 17.2323 12.3989C17.7011 11.9301 18.337 11.6667 19 11.6667H22.3334ZM20.6667 18.3334C20.4457 18.3334 20.2337 18.4212 20.0775 18.5774C19.9212 18.7337 19.8334 18.9457 19.8334 19.1667C19.8328 19.2761 19.8538 19.3846 19.8952 19.4859C19.9366 19.5872 19.9975 19.6794 20.0745 19.7572C20.1515 19.8349 20.2431 19.8968 20.344 19.9392C20.4449 19.9815 20.5531 20.0036 20.6625 20.0042C20.772 20.0047 20.8804 19.9837 20.9818 19.9423C21.0831 19.901 21.1752 19.8401 21.253 19.7631C21.3308 19.6861 21.3926 19.5945 21.435 19.4936C21.4774 19.3927 21.4995 19.2845 21.5 19.175C21.5 18.7067 21.1267 18.3334 20.6667 18.3334ZM22.3334 13.3334H19C18.779 13.3334 18.5671 13.4212 18.4108 13.5774C18.2545 13.7337 18.1667 13.9457 18.1667 14.1667V15H23.1667V14.1667C23.1667 13.9457 23.0789 13.7337 22.9226 13.5774C22.7663 13.4212 22.5544 13.3334 22.3334 13.3334Z" fill="#7E52F4"/>
</g>
<defs>
<linearGradient id="paint0_linear_3023_588" x1="20.6667" y1="0" x2="20.6667" y2="40" gradientUnits="userSpaceOnUse">
<stop stop-color="#8A6FF6" stop-opacity="0.24"/>
<stop offset="0.5" stop-color="#8A6FF6" stop-opacity="0.08"/>
</linearGradient>
<clipPath id="clip0_3023_588">
<path d="M0.666687 12C0.666687 5.37258 6.03927 0 12.6667 0H28.6667C35.2941 0 40.6667 5.37258 40.6667 12V28C40.6667 34.6274 35.2941 40 28.6667 40H12.6667C6.03927 40 0.666687 34.6274 0.666687 28V12Z" fill="white"/>
</clipPath>
</defs>
</svg>
