<svg width="40" height="40" viewBox="0 0 40 40" fill="none" xmlns="http://www.w3.org/2000/svg">
<g clip-path="url(#clip0_3023_576)">
<path d="M0 12C0 5.37258 5.37258 0 12 0H28C34.6274 0 40 5.37258 40 12V28C40 34.6274 34.6274 40 28 40H12C5.37258 40 0 34.6274 0 28V12Z" fill="white"/>
<rect width="40" height="40" fill="url(#paint0_linear_3023_576)"/>
<path d="M24.995 12.4067L25 12.5V15C25 16.1816 24.5815 17.325 23.8188 18.2275C23.0561 19.1299 21.9984 19.7331 20.8334 19.93V23.4183C21.3758 22.8631 22.024 22.4221 22.7396 22.1212C23.4552 21.8204 24.2238 21.6658 25 21.6667C25.221 21.6667 25.433 21.7545 25.5893 21.9108C25.7456 22.067 25.8334 22.279 25.8334 22.5C25.8334 24.0471 25.2188 25.5308 24.1248 26.6248C23.0308 27.7188 21.5471 28.3333 20 28.3333C18.4529 28.3333 16.9692 27.7188 15.8752 26.6248C14.7813 25.5308 14.1667 24.0471 14.1667 22.5C14.1667 22.279 14.2545 22.067 14.4108 21.9108C14.567 21.7545 14.779 21.6667 15 21.6667C16.6334 21.6667 18.1092 22.3375 19.1684 23.4192L19.1667 19.9308C18.0015 19.7339 16.9437 19.1306 16.181 18.228C15.4182 17.3254 14.9998 16.1817 15 15V12.5C15 12.3491 15.0409 12.2011 15.1185 12.0717C15.196 11.9422 15.3072 11.8363 15.4402 11.7651C15.5732 11.6939 15.7231 11.6602 15.8738 11.6675C16.0245 11.6749 16.1704 11.7229 16.2959 11.8067L18.2267 13.0933L19.41 11.91C19.5536 11.7667 19.7446 11.6806 19.9471 11.668C20.1496 11.6555 20.3498 11.7172 20.51 11.8417L20.5892 11.9108L21.7725 13.0933L23.7042 11.8067C23.8231 11.7271 23.9605 11.6795 24.1032 11.6684C24.2459 11.6573 24.389 11.6832 24.5187 11.7435C24.6485 11.8037 24.7606 11.8964 24.8442 12.0126C24.9277 12.1287 24.98 12.2645 24.9959 12.4067M15.9417 23.44L15.9667 23.5517C16.1593 24.2871 16.549 24.9559 17.0939 25.4861C17.6387 26.0162 18.318 26.3876 19.0584 26.56C18.8827 25.8005 18.4976 25.1054 17.9466 24.5539C17.3957 24.0023 16.701 23.6164 15.9417 23.44ZM24.06 23.4417L23.9484 23.4667C23.213 23.6593 22.5441 24.049 22.014 24.5939C21.4838 25.1387 21.1125 25.818 20.94 26.5583C21.6996 26.3827 22.3946 25.9976 22.9461 25.4466C23.4977 24.8957 23.8836 24.201 24.06 23.4417Z" fill="#FF8547"/>
</g>
<defs>
<linearGradient id="paint0_linear_3023_576" x1="20" y1="0" x2="20" y2="40" gradientUnits="userSpaceOnUse">
<stop stop-color="#FF9966" stop-opacity="0.24"/>
<stop offset="0.5" stop-color="#FF9966" stop-opacity="0.08"/>
</linearGradient>
<clipPath id="clip0_3023_576">
<path d="M0 12C0 5.37258 5.37258 0 12 0H28C34.6274 0 40 5.37258 40 12V28C40 34.6274 34.6274 40 28 40H12C5.37258 40 0 34.6274 0 28V12Z" fill="white"/>
</clipPath>
</defs>
</svg>
