<svg width="40" height="40" viewBox="0 0 40 40" fill="none" xmlns="http://www.w3.org/2000/svg">
<g clip-path="url(#clip0_3023_277)">
<path d="M0 12C0 5.37258 5.37258 0 12 0H28C34.6274 0 40 5.37258 40 12V28C40 34.6274 34.6274 40 28 40H12C5.37258 40 0 34.6274 0 28V12Z" fill="white"/>
<rect width="40" height="40" fill="url(#paint0_linear_3023_277)"/>
<path d="M24.1667 12.7833C25.4236 13.509 26.4691 14.5504 27.1999 15.8044C27.9306 17.0584 28.3212 18.4815 28.3329 19.9328C28.3446 21.3841 27.9771 22.8133 27.2667 24.0789C26.5563 25.3445 25.5277 26.4027 24.2827 27.1486C23.0377 27.8945 21.6195 28.3023 20.1684 28.3317C18.7174 28.3611 17.2838 28.011 16.0096 27.316C14.7355 26.6211 13.6649 25.6054 12.9039 24.3696C12.1429 23.1337 11.7179 21.7206 11.6709 20.27L11.6667 20L11.6709 19.73C11.7175 18.2908 12.1363 16.8883 12.8864 15.6592C13.6365 14.43 14.6922 13.4162 15.9508 12.7166C17.2093 12.0169 18.6276 11.6553 20.0675 11.667C21.5074 11.6787 22.9197 12.0633 24.1667 12.7833ZM20 21C19.5012 21 19.0074 21.0994 18.5475 21.2926C18.0876 21.4858 17.6709 21.7688 17.3217 22.125C17.2433 22.2027 17.1811 22.2953 17.1387 22.3973C17.0964 22.4993 17.0747 22.6087 17.075 22.7191C17.0753 22.8296 17.0976 22.9388 17.1405 23.0406C17.1834 23.1424 17.2461 23.2346 17.325 23.3119C17.4038 23.3892 17.4973 23.4501 17.5999 23.4909C17.7024 23.5318 17.8121 23.5519 17.9226 23.55C18.033 23.5482 18.1419 23.5243 18.2431 23.48C18.3442 23.4356 18.4355 23.3716 18.5117 23.2917C18.7057 23.0936 18.9372 22.9363 19.1928 22.8289C19.4484 22.7214 19.7228 22.6661 20 22.6661C20.2772 22.6661 20.5517 22.7214 20.8072 22.8289C21.0628 22.9363 21.2944 23.0936 21.4884 23.2917C21.6439 23.4458 21.8538 23.5326 22.0727 23.5332C22.2917 23.5338 22.5021 23.4482 22.6584 23.2949C22.8148 23.1416 22.9045 22.9329 22.9082 22.714C22.912 22.4951 22.8294 22.2835 22.6784 22.125C22.3292 21.7688 21.9124 21.4858 21.4526 21.2926C20.9927 21.0994 20.4988 21 20 21ZM17.5084 17.5L17.4025 17.5058C17.2 17.5299 17.0133 17.6275 16.8779 17.78C16.7424 17.9325 16.6676 18.1294 16.6676 18.3333C16.6676 18.5373 16.7424 18.7342 16.8779 18.8867C17.0133 19.0392 17.2 19.1367 17.4025 19.1608L17.5 19.1667L17.6059 19.1608C17.8084 19.1367 17.9951 19.0392 18.1305 18.8867C18.266 18.7342 18.3408 18.5373 18.3408 18.3333C18.3408 18.1294 18.266 17.9325 18.1305 17.78C17.9951 17.6275 17.8084 17.5299 17.6059 17.5058L17.5084 17.5ZM22.5084 17.5L22.4025 17.5058C22.2 17.5299 22.0133 17.6275 21.8779 17.78C21.7424 17.9325 21.6676 18.1294 21.6676 18.3333C21.6676 18.5373 21.7424 18.7342 21.8779 18.8867C22.0133 19.0392 22.2 19.1367 22.4025 19.1608L22.5 19.1667L22.6059 19.1608C22.8084 19.1367 22.9951 19.0392 23.1305 18.8867C23.266 18.7342 23.3408 18.5373 23.3408 18.3333C23.3408 18.1294 23.266 17.9325 23.1305 17.78C22.9951 17.6275 22.8084 17.5299 22.6059 17.5058L22.5084 17.5Z" fill="#22D3BB"/>
</g>
<defs>
<linearGradient id="paint0_linear_3023_277" x1="20" y1="0" x2="20" y2="40" gradientUnits="userSpaceOnUse">
<stop stop-color="#3FDEC9" stop-opacity="0.24"/>
<stop offset="0.5" stop-color="#3FDEC9" stop-opacity="0.08"/>
</linearGradient>
<clipPath id="clip0_3023_277">
<path d="M0 12C0 5.37258 5.37258 0 12 0H28C34.6274 0 40 5.37258 40 12V28C40 34.6274 34.6274 40 28 40H12C5.37258 40 0 34.6274 0 28V12Z" fill="white"/>
</clipPath>
</defs>
</svg>
