<svg width="41" height="40" viewBox="0 0 41 40" fill="none" xmlns="http://www.w3.org/2000/svg">
<g clip-path="url(#clip0_3023_569)">
<path d="M0.666687 12C0.666687 5.37258 6.03927 0 12.6667 0H28.6667C35.2941 0 40.6667 5.37258 40.6667 12V28C40.6667 34.6274 35.2941 40 28.6667 40H12.6667C6.03927 40 0.666687 34.6274 0.666687 28V12Z" fill="white"/>
<rect x="0.666687" width="40" height="40" fill="url(#paint0_linear_3023_569)"/>
<path d="M13.6548 18.8215C13.9674 18.5089 14.3913 18.3333 14.8334 18.3333C15.2754 18.3333 15.6993 18.5089 16.0119 18.8215C16.3244 19.134 16.5 19.558 16.5 20C16.5 20.442 16.3244 20.8659 16.0119 21.1785C15.6993 21.4911 15.2754 21.6666 14.8334 21.6666C14.3913 21.6666 13.9674 21.4911 13.6548 21.1785C13.3423 20.8659 13.1667 20.442 13.1667 20C13.1667 19.558 13.3423 19.134 13.6548 18.8215Z" fill="#717784"/>
<path d="M19.4882 18.8215C19.8007 18.5089 20.2247 18.3333 20.6667 18.3333C21.1087 18.3333 21.5326 18.5089 21.8452 18.8215C22.1578 19.134 22.3334 19.558 22.3334 20C22.3334 20.442 22.1578 20.8659 21.8452 21.1785C21.5326 21.4911 21.1087 21.6666 20.6667 21.6666C20.2247 21.6666 19.8007 21.4911 19.4882 21.1785C19.1756 20.8659 19 20.442 19 20C19 19.558 19.1756 19.134 19.4882 18.8215Z" fill="#717784"/>
<path d="M26.5 18.3333C26.058 18.3333 25.6341 18.5089 25.3215 18.8215C25.0089 19.134 24.8334 19.558 24.8334 20C24.8334 20.442 25.0089 20.8659 25.3215 21.1785C25.6341 21.4911 26.058 21.6666 26.5 21.6666C26.942 21.6666 27.366 21.4911 27.6785 21.1785C27.9911 20.8659 28.1667 20.442 28.1667 20C28.1667 19.558 27.9911 19.134 27.6785 18.8215C27.366 18.5089 26.942 18.3333 26.5 18.3333Z" fill="#717784"/>
</g>
<defs>
<linearGradient id="paint0_linear_3023_569" x1="20.6667" y1="0" x2="20.6667" y2="40" gradientUnits="userSpaceOnUse">
<stop stop-color="#99A0AD" stop-opacity="0.24"/>
<stop offset="0.5" stop-color="#99A0AD" stop-opacity="0.08"/>
</linearGradient>
<clipPath id="clip0_3023_569">
<path d="M0.666687 12C0.666687 5.37258 6.03927 0 12.6667 0H28.6667C35.2941 0 40.6667 5.37258 40.6667 12V28C40.6667 34.6274 35.2941 40 28.6667 40H12.6667C6.03927 40 0.666687 34.6274 0.666687 28V12Z" fill="white"/>
</clipPath>
</defs>
</svg>
