<svg width="20" height="20" viewBox="0 0 20 20" fill="none" xmlns="http://www.w3.org/2000/svg">
<path fill-rule="evenodd" clip-rule="evenodd" d="M4.16669 4.16667C3.94567 4.16667 3.73371 4.25446 3.57743 4.41074C3.42115 4.56702 3.33335 4.77899 3.33335 5V14.1667C3.33335 14.3877 3.42115 14.5996 3.57743 14.7559C3.73371 14.9122 3.94567 15 4.16669 15H15.8334C16.0544 15 16.2663 14.9122 16.4226 14.7559C16.5789 14.5996 16.6667 14.3877 16.6667 14.1667V7.5C16.6667 7.27899 16.5789 7.06702 16.4226 6.91074C16.2663 6.75446 16.0544 6.66667 15.8334 6.66667H10C9.77901 6.66667 9.56704 6.57887 9.41076 6.42259L7.15484 4.16667H4.16669ZM2.39892 3.23223C2.86776 2.76339 3.50365 2.5 4.16669 2.5H7.50002C7.72103 2.5 7.933 2.5878 8.08928 2.74408L10.3452 5H15.8334C16.4964 5 17.1323 5.26339 17.6011 5.73223C18.07 6.20107 18.3334 6.83696 18.3334 7.5V14.1667C18.3334 14.8297 18.07 15.4656 17.6011 15.9344C17.1323 16.4033 16.4964 16.6667 15.8334 16.6667H4.16669C3.50365 16.6667 2.86776 16.4033 2.39892 15.9344C1.93008 15.4656 1.66669 14.8297 1.66669 14.1667V5C1.66669 4.33696 1.93008 3.70107 2.39892 3.23223Z" fill="#99A0AD"/>
</svg>
