<svg width="16" height="16" viewBox="0 0 16 16" fill="none" xmlns="http://www.w3.org/2000/svg">
<path fill-rule="evenodd" clip-rule="evenodd" d="M6.11438 5.44774C6.61448 4.94765 7.29276 4.6667 8 4.6667C8.70725 4.6667 9.38552 4.94765 9.88562 5.44774C10.3857 5.94784 10.6667 6.62612 10.6667 7.33336C10.6667 8.04061 10.3857 8.71888 9.88562 9.21898C9.38552 9.71908 8.70725 10 8 10C7.29276 10 6.61448 9.71908 6.11438 9.21898C5.61429 8.71888 5.33334 8.04061 5.33334 7.33336C5.33334 6.62612 5.61429 5.94784 6.11438 5.44774ZM8 6.00003C7.64638 6.00003 7.30724 6.14051 7.05719 6.39055C6.80715 6.6406 6.66667 6.97974 6.66667 7.33336C6.66667 7.68699 6.80715 8.02612 7.05719 8.27617C7.30724 8.52622 7.64638 8.6667 8 8.6667C8.35363 8.6667 8.69276 8.52622 8.94281 8.27617C9.19286 8.02612 9.33334 7.68699 9.33334 7.33336C9.33334 6.97974 9.19286 6.6406 8.94281 6.39055C8.69276 6.14051 8.35363 6.00003 8 6.00003Z" fill="#717784"/>
<path fill-rule="evenodd" clip-rule="evenodd" d="M8 2.66689C7.07703 2.66689 6.17479 2.94058 5.40737 3.45335C4.63994 3.96612 4.0418 4.69494 3.68859 5.54765C3.33537 6.40035 3.24294 7.33865 3.42299 8.24389C3.60303 9.1491 4.04743 9.98059 4.70002 10.6332V10.6332L7.52917 13.4617C7.65417 13.5866 7.82364 13.6567 8.00034 13.6567C8.17703 13.6567 8.3465 13.5866 8.4715 13.4617L11.2999 10.6333V10.6333C11.9525 9.98065 12.397 9.14912 12.577 8.24389C12.7571 7.33865 12.6646 6.40035 12.3114 5.54765C11.9582 4.69494 11.3601 3.96612 10.5926 3.45335C9.82521 2.94058 8.92297 2.66689 8 2.66689ZM4.66661 2.34472C5.6533 1.68544 6.81333 1.33356 8 1.33356C9.18668 1.33356 10.3467 1.68544 11.3334 2.34472C12.3201 3.00399 13.0891 3.94105 13.5433 5.03739C13.9974 6.13372 14.1162 7.34011 13.8847 8.50399C13.6533 9.66786 13.0818 10.737 12.2428 11.5761L9.41407 14.4048C9.03906 14.7794 8.53042 14.9901 8.00034 14.9901C7.47025 14.9901 6.96185 14.7796 6.58684 14.405L3.75732 11.5762C2.91824 10.737 2.34675 9.66786 2.11527 8.50399C1.88378 7.34011 2.00262 6.13372 2.45676 5.03739C2.91089 3.94105 3.67993 3.00399 4.66661 2.34472Z" fill="#717784"/>
</svg>
