<svg width="312" height="56" viewBox="0 0 312 56" fill="none" xmlns="http://www.w3.org/2000/svg">
<path opacity="0.32" d="M235.614 -24.7982C232.398 -30.9049 224.493 -42.2076 220.943 -47.0956M235.614 -24.7982L311.784 -29.6193M235.614 -24.7982C238.102 -20.0736 244.359 -2.21838 249.081 11.7614M249.081 11.7614C250.462 15.8507 251.712 19.6083 252.697 22.6088C252.697 24.8988 252.758 27.6558 252.903 30.6439M249.081 11.7614L315 15.3772M252.903 30.6439C253.521 43.3827 255.668 60.3223 261.138 63.186C266.136 65.8029 278.182 62.7848 290.682 59.0952M252.903 30.6439C262.414 33.1214 281.919 38.7995 283.848 41.6921C285.778 44.5847 289.208 54.4994 290.682 59.0952M315 52.1377C308.115 53.6943 299.291 56.554 290.682 59.0952M125.478 114.41L115.831 131.283M241.643 145.345C231.251 144.353 217.926 142.306 202.855 138.979M202.855 138.979L205.266 132.087L213.104 132.087L221.345 127.467L224.359 117.825L199.448 69.8149M202.855 138.979C198.313 137.976 193.613 136.858 188.786 135.617M110.159 84.0772L120.856 72.0246L132.914 66.0786M110.159 84.0772L96.5376 99.4241M110.159 84.0772L94.3268 69.8149L108.194 49.9281L113.018 48.9237L130.101 60.3737L132.914 66.0786M96.5376 99.4241C108.117 105.92 120.029 111.622 131.91 116.6M96.5376 99.4241C84.8902 92.8901 73.5792 85.5534 62.9743 77.3442M132.914 66.0786L147.184 59.0425M147.184 59.0425L181.149 42.2947L185.169 42.2947L199.448 69.8149M147.184 59.0425L165.473 91.7105M165.473 91.7105L157.233 102.759L131.91 116.6M165.473 91.7105L190.193 81.2649L194.213 73.029L199.448 69.8149M131.91 116.6C147.298 123.047 162.635 128.279 177.129 132.444M177.129 132.444L184.164 102.759L172.909 98.7412M177.129 132.444C181.083 133.58 184.974 134.636 188.786 135.617M188.786 135.617L178.737 158M187.781 13.7702L139.547 36.3805M139.547 36.3805L135.929 38.0763M139.547 36.3805L130.101 16.5825M176.728 -7.52281L141.958 8.94912L145.777 17.7877M165.473 -33.6368L116.032 -12.3439L111.611 -14.7544L106.988 -29.4184L102.768 -36.2483L95.9346 -51.5149L86.0867 -65.1746M25.5345 38.8798C26.4055 40.6657 27.2319 42.154 28.0043 43.2991C38.1643 56.029 50.0444 67.3351 62.9743 77.3442M25.5345 38.8798L53.1264 22.6088L72.6213 21.5032M25.5345 38.8798C21.9856 31.6032 17.6977 19.388 13.3195 5.33332M105.381 8.94912L92.1161 16.9402M92.1161 16.9402L90.7092 17.7877L81.4643 21.0017L72.6213 21.5032M92.1161 16.9402L96.9395 22.6088L99.9542 28.2333L99.9542 32.8535L69.8076 69.1231M62.9743 77.3442L69.8076 69.1231M69.8076 69.1231L58.3519 58.3649M72.6213 21.5032L64.1802 -3.30439M13.3195 5.33332L47.0971 -16.964L50.9157 -16.964L57.347 -10.7368M13.3195 5.33332C12.5632 2.90541 11.8042 0.422598 11.0459 -2.09913M17.1515 -33.0342L19.1613 -29.0167L19.1613 -23.9947L17.1515 -21.1825L6.70236 -16.964M6.70236 -16.964C8.13192 -11.9409 9.5877 -6.94808 11.0459 -2.09913M6.70236 -16.964C4.51141 -24.6625 2.38198 -32.4321 0.399736 -39.864M11.0459 -2.09913L-7.56873 5.33332M0.399736 -39.864C-2.7385 -51.63 -5.5079 -62.5495 -7.56873 -71M0.399736 -39.864L-7.56873 -37.6544L-14 -27.6105M191.6 22.0061L224.359 4.52982M249.481 130.48C233.604 100.348 171.1 -9.93334 162.257 -43.4798" stroke="#99A0AD" stroke-opacity="0.24" stroke-width="4" stroke-linecap="round" stroke-linejoin="bevel"/>
</svg>
