<svg width="15" height="14" viewBox="0 0 15 14" fill="none" xmlns="http://www.w3.org/2000/svg">
<path fill-rule="evenodd" clip-rule="evenodd" d="M13.9714 0.528594C14.1542 0.711366 14.2149 0.983315 14.1271 1.22643L9.79373 13.2264C9.78745 13.2438 9.78045 13.2609 9.77275 13.2777C9.69032 13.4576 9.55798 13.61 9.39146 13.7169C9.22494 13.8238 9.03123 13.8806 8.83336 13.8806C8.63549 13.8806 8.44179 13.8238 8.27526 13.7169C8.11273 13.6126 7.98275 13.4649 7.89997 13.2906L5.66979 8.83024L1.20944 6.60006C1.03515 6.51728 0.887432 6.38731 0.783121 6.22476C0.676254 6.05824 0.619446 5.86453 0.619446 5.66667C0.619446 5.4688 0.676254 5.27509 0.783121 5.10857C0.889987 4.94204 1.04242 4.8097 1.22229 4.72727C1.2391 4.71957 1.25621 4.71257 1.2736 4.7063L13.2736 0.372963C13.5167 0.285172 13.7887 0.345822 13.9714 0.528594ZM2.41453 5.7119L6.46484 7.73705C6.59385 7.80156 6.69847 7.90617 6.76298 8.03519L8.78813 12.0855L12.3906 2.10943L2.41453 5.7119Z" fill="#0E121B"/>
</svg>
