<svg width="21" height="20" viewBox="0 0 21 20" fill="none" xmlns="http://www.w3.org/2000/svg">
<path fill-rule="evenodd" clip-rule="evenodd" d="M8.93327 1.66669C8.05779 1.66669 7.19088 1.83913 6.38205 2.17416C5.57321 2.50919 4.83828 3.00025 4.21922 3.61931C3.60017 4.23837 3.1091 4.97329 2.77407 5.78213C2.43904 6.59097 2.2666 7.45787 2.2666 8.33335C2.2666 9.20883 2.43904 10.0757 2.77407 10.8846C3.1091 11.6934 3.60017 12.4283 4.21922 13.0474C4.83828 13.6665 5.57321 14.1575 6.38205 14.4926C7.19088 14.8276 8.05779 15 8.93327 15C9.80875 15 10.6757 14.8276 11.4845 14.4926C12.0354 14.2644 12.552 13.9638 13.0211 13.5997L17.5107 18.0893C17.8361 18.4147 18.3638 18.4147 18.6892 18.0893C19.0146 17.7638 19.0146 17.2362 18.6892 16.9108L14.1996 12.4212C14.5637 11.9521 14.8643 11.4355 15.0925 10.8846C15.4275 10.0757 15.5999 9.20883 15.5999 8.33335C15.5999 7.45787 15.4275 6.59097 15.0925 5.78213C14.7574 4.97329 14.2664 4.23837 13.6473 3.61931C13.0283 3.00025 12.2933 2.50919 11.4845 2.17416C10.6757 1.83913 9.80875 1.66669 8.93327 1.66669ZM7.01985 3.71396C7.62648 3.46268 8.27666 3.33335 8.93327 3.33335C9.58988 3.33335 10.2401 3.46268 10.8467 3.71396C11.4533 3.96523 12.0045 4.33353 12.4688 4.79782C12.9331 5.26211 13.3014 5.81331 13.5527 6.41994C13.8039 7.02656 13.9333 7.67674 13.9333 8.33335C13.9333 8.98996 13.8039 9.64014 13.5527 10.2468C13.3014 10.8534 12.9331 11.4046 12.4688 11.8689C12.0045 12.3332 11.4533 12.7015 10.8467 12.9528C10.2401 13.204 9.58988 13.3334 8.93327 13.3334C8.27666 13.3334 7.62648 13.204 7.01985 12.9528C6.41322 12.7015 5.86203 12.3332 5.39773 11.8689C4.93344 11.4046 4.56514 10.8534 4.31387 10.2468C4.0626 9.64014 3.93327 8.98996 3.93327 8.33335C3.93327 7.67674 4.0626 7.02656 4.31387 6.41994C4.56514 5.81331 4.93344 5.26211 5.39773 4.79782C5.86203 4.33353 6.41322 3.96523 7.01985 3.71396Z" fill="#0E121B"/>
</svg>
