<svg width="10" height="10" viewBox="0 0 10 10" fill="none" xmlns="http://www.w3.org/2000/svg">
<path d="M5.5 0.499908C5.5 0.223766 5.27614 -9.15527e-05 5 -9.15527e-05C4.72386 -9.15527e-05 4.5 0.223766 4.5 0.499908V1.99991C4.5 2.27605 4.72386 2.49991 5 2.49991C5.27614 2.49991 5.5 2.27605 5.5 1.99991V0.499908Z" fill="white"/>
<path d="M8.55355 2.15345C8.74882 1.95819 8.74882 1.6416 8.55355 1.44634C8.35829 1.25108 8.04171 1.25108 7.84645 1.44634L6.77145 2.52134C6.57618 2.71661 6.57618 3.03319 6.77145 3.22845C6.96671 3.42371 7.28329 3.42371 7.47855 3.22845L8.55355 2.15345Z" fill="white"/>
<path d="M7.5 4.99991C7.5 4.72377 7.72386 4.49991 8 4.49991H9.5C9.77614 4.49991 10 4.72377 10 4.99991C10 5.27605 9.77614 5.49991 9.5 5.49991H8C7.72386 5.49991 7.5 5.27605 7.5 4.99991Z" fill="white"/>
<path d="M7.47855 6.77136C7.28329 6.57609 6.96671 6.57609 6.77145 6.77136C6.57618 6.96662 6.57618 7.2832 6.77145 7.47846L7.84645 8.55346C8.04171 8.74872 8.35829 8.74872 8.55355 8.55346C8.74882 8.3582 8.74882 8.04162 8.55355 7.84635L7.47855 6.77136Z" fill="white"/>
<path d="M5 7.49991C5.27614 7.49991 5.5 7.72377 5.5 7.99991V9.49991C5.5 9.77605 5.27614 9.99991 5 9.99991C4.72386 9.99991 4.5 9.77605 4.5 9.49991V7.99991C4.5 7.72377 4.72386 7.49991 5 7.49991Z" fill="white"/>
<path d="M3.22855 7.47846C3.42381 7.2832 3.42381 6.96662 3.22855 6.77136C3.03329 6.57609 2.71671 6.57609 2.52145 6.77136L1.44645 7.84635C1.25118 8.04162 1.25118 8.3582 1.44645 8.55346C1.64171 8.74872 1.95829 8.74872 2.15355 8.55346L3.22855 7.47846Z" fill="white"/>
<path d="M0 4.99991C0 4.72377 0.223858 4.49991 0.5 4.49991H2C2.27614 4.49991 2.5 4.72377 2.5 4.99991C2.5 5.27605 2.27614 5.49991 2 5.49991H0.5C0.223858 5.49991 0 5.27605 0 4.99991Z" fill="white"/>
<path d="M2.15355 1.44634C1.95829 1.25108 1.64171 1.25108 1.44645 1.44634C1.25118 1.64161 1.25118 1.95819 1.44645 2.15345L2.52145 3.22845C2.71671 3.42371 3.03329 3.42371 3.22855 3.22845C3.42381 3.03319 3.42381 2.71661 3.22855 2.52134L2.15355 1.44634Z" fill="white"/>
</svg>
